<?xml version="1.0" encoding="UTF-8" standalone="no"?><svg xmlns="http://www.w3.org/2000/svg" xmlns:xlink="http://www.w3.org/1999/xlink" contentStyleType="text/css" height="282px" preserveAspectRatio="none" style="width:319px;height:282px;background:#FFFFFF;" version="1.1" viewBox="0 0 319 282" width="319px" zoomAndPan="magnify"><defs/><g><text fill="#000000" font-family="sans-serif" font-size="14" font-weight="bold" lengthAdjust="spacing" textLength="276" x="20" y="33.5352">Easy code generation from .proto files</text><ellipse cx="159.5" cy="57.4883" fill="#222222" rx="10" ry="10" style="stroke:#222222;stroke-width:1.0;"/><rect fill="#F1F1F1" height="34.1328" rx="12.5" ry="12.5" style="stroke:#181818;stroke-width:0.5;" width="186" x="66.5" y="87.4883"/><text fill="#000000" font-family="sans-serif" font-size="12" lengthAdjust="spacing" textLength="166" x="76.5" y="109.0898">Generate via bash command</text><rect fill="#F1F1F1" height="34.1328" rx="12.5" ry="12.5" style="stroke:#181818;stroke-width:0.5;" width="235" x="42" y="141.6211"/><text fill="#000000" font-family="sans-serif" font-size="12" lengthAdjust="spacing" textLength="215" x="52" y="163.2227">Integrate the code in your application</text><rect fill="#F1F1F1" height="34.1328" rx="12.5" ry="12.5" style="stroke:#181818;stroke-width:0.5;" width="248" x="35.5" y="195.7539"/><text fill="#000000" font-family="sans-serif" font-size="12" lengthAdjust="spacing" textLength="228" x="45.5" y="217.3555">Repeat process for updates or changes</text><ellipse cx="159.5" cy="260.8867" fill="none" rx="11" ry="11" style="stroke:#222222;stroke-width:1.0;"/><ellipse cx="159.5" cy="260.8867" fill="#222222" rx="6" ry="6" style="stroke:#111111;stroke-width:1.0;"/><line style="stroke:#181818;stroke-width:1.0;" x1="159.5" x2="159.5" y1="67.4883" y2="87.4883"/><polygon fill="#181818" points="155.5,77.4883,159.5,87.4883,163.5,77.4883,159.5,81.4883" style="stroke:#181818;stroke-width:1.0;"/><line style="stroke:#181818;stroke-width:1.0;" x1="159.5" x2="159.5" y1="121.6211" y2="141.6211"/><polygon fill="#181818" points="155.5,131.6211,159.5,141.6211,163.5,131.6211,159.5,135.6211" style="stroke:#181818;stroke-width:1.0;"/><line style="stroke:#181818;stroke-width:1.0;" x1="159.5" x2="159.5" y1="175.7539" y2="195.7539"/><polygon fill="#181818" points="155.5,185.7539,159.5,195.7539,163.5,185.7539,159.5,189.7539" style="stroke:#181818;stroke-width:1.0;"/><line style="stroke:#181818;stroke-width:1.0;" x1="159.5" x2="159.5" y1="229.8867" y2="249.8867"/><polygon fill="#181818" points="155.5,239.8867,159.5,249.8867,163.5,239.8867,159.5,243.8867" style="stroke:#181818;stroke-width:1.0;"/><!--SRC=[9Or13iCW30Jll69Vq0SavwhgjJzmmG4am0WxbVBxakIsqixEMhR2U98Uy18OaHiFiYmDsv2AHnzYWYqNLkVKQ9Xpo-kc6BzC-9AcEQwLMbZTycx6yIejyItD3OVi0zHxoVwoJ_33dSam3pohOfE1lOSvLCpe4xN8kfwdqjqV]--></g></svg>