<?xml version="1.0" encoding="UTF-8" standalone="no"?><svg xmlns="http://www.w3.org/2000/svg" xmlns:xlink="http://www.w3.org/1999/xlink" contentStyleType="text/css" height="391px" preserveAspectRatio="none" style="width:430px;height:391px;background:#FFFFFF;" version="1.1" viewBox="0 0 430 391" width="430px" zoomAndPan="magnify"><defs/><g><text fill="#000000" font-family="sans-serif" font-size="14" font-weight="bold" lengthAdjust="spacing" textLength="307" x="60" y="33.5352">Complex code generation from .proto files</text><ellipse cx="215" cy="57.4883" fill="#222222" rx="10" ry="10" style="stroke:#222222;stroke-width:1.0;"/><rect fill="#F1F1F1" height="34.1328" rx="12.5" ry="12.5" style="stroke:#181818;stroke-width:0.5;" width="216" x="107" y="87.4883"/><text fill="#000000" font-family="sans-serif" font-size="12" lengthAdjust="spacing" textLength="196" x="117" y="109.0898">Define data structure in .proto file</text><rect fill="#F1F1F1" height="34.1328" rx="12.5" ry="12.5" style="stroke:#181818;stroke-width:0.5;" width="408" x="11" y="141.6211"/><text fill="#000000" font-family="sans-serif" font-size="12" lengthAdjust="spacing" textLength="388" x="21" y="163.2227">Install Protocol Buffers compiler on local machine for each language</text><rect fill="#F1F1F1" height="34.1328" rx="12.5" ry="12.5" style="stroke:#181818;stroke-width:0.5;" width="127" x="151.5" y="195.7539"/><text fill="#000000" font-family="sans-serif" font-size="12" lengthAdjust="spacing" textLength="107" x="161.5" y="217.3555">Compile .proto file</text><rect fill="#F1F1F1" height="34.1328" rx="12.5" ry="12.5" style="stroke:#181818;stroke-width:0.5;" width="235" x="97.5" y="249.8867"/><text fill="#000000" font-family="sans-serif" font-size="12" lengthAdjust="spacing" textLength="215" x="107.5" y="271.4883">Integrate the code in your application</text><rect fill="#F1F1F1" height="34.1328" rx="12.5" ry="12.5" style="stroke:#181818;stroke-width:0.5;" width="248" x="91" y="304.0195"/><text fill="#000000" font-family="sans-serif" font-size="12" lengthAdjust="spacing" textLength="228" x="101" y="325.6211">Repeat process for updates or changes</text><ellipse cx="215" cy="369.1523" fill="none" rx="11" ry="11" style="stroke:#222222;stroke-width:1.0;"/><ellipse cx="215" cy="369.1523" fill="#222222" rx="6" ry="6" style="stroke:#111111;stroke-width:1.0;"/><line style="stroke:#181818;stroke-width:1.0;" x1="215" x2="215" y1="67.4883" y2="87.4883"/><polygon fill="#181818" points="211,77.4883,215,87.4883,219,77.4883,215,81.4883" style="stroke:#181818;stroke-width:1.0;"/><line style="stroke:#181818;stroke-width:1.0;" x1="215" x2="215" y1="121.6211" y2="141.6211"/><polygon fill="#181818" points="211,131.6211,215,141.6211,219,131.6211,215,135.6211" style="stroke:#181818;stroke-width:1.0;"/><line style="stroke:#181818;stroke-width:1.0;" x1="215" x2="215" y1="175.7539" y2="195.7539"/><polygon fill="#181818" points="211,185.7539,215,195.7539,219,185.7539,215,189.7539" style="stroke:#181818;stroke-width:1.0;"/><line style="stroke:#181818;stroke-width:1.0;" x1="215" x2="215" y1="229.8867" y2="249.8867"/><polygon fill="#181818" points="211,239.8867,215,249.8867,219,239.8867,215,243.8867" style="stroke:#181818;stroke-width:1.0;"/><line style="stroke:#181818;stroke-width:1.0;" x1="215" x2="215" y1="284.0195" y2="304.0195"/><polygon fill="#181818" points="211,294.0195,215,304.0195,219,294.0195,215,298.0195" style="stroke:#181818;stroke-width:1.0;"/><line style="stroke:#181818;stroke-width:1.0;" x1="215" x2="215" y1="338.1523" y2="358.1523"/><polygon fill="#181818" points="211,348.1523,215,358.1523,219,348.1523,215,352.1523" style="stroke:#181818;stroke-width:1.0;"/><!--SRC=[POynRaCn34Dtdu8dw06IhSdIhUWD18V-tu2-PTWoqDw- -ibIe1iXa7oKLrVYPaTNVYFRWzZOECIhDPHX1zxwC3UKgfnfkWnFwN9dgOruY0kcZvLz3QAsl-vhkdoq2AZYypncKxolKZXca8uUbe6Wg6LH79BtixBO04D3fMrBjhFczdB_AtTkiPJmdQ_jCU37re3qhZK_dmZZ5pl54U7CEP-4rMCw9qBcFK2SrnJFMK-_]--></g></svg>